<svg width="304" height="62" viewBox="0 0 304 62" fill="none" xmlns="http://www.w3.org/2000/svg">
<g clip-path="url(#clip0_152_1626)">
<path d="M3 15C3 8.37258 8.37258 3 15 3H47C53.6274 3 59 8.37258 59 15V47C59 53.6274 53.6274 59 47 59H15C8.37258 59 3 53.6274 3 47V15Z" fill="#080518"/>
<g filter="url(#filter0_f_152_1626)">
<circle cx="51.5333" cy="49.8533" r="28.9333" fill="url(#paint0_linear_152_1626)"/>
</g>
<g filter="url(#filter1_f_152_1626)">
<circle cx="-4.99548" cy="2.84437" r="23.9244" fill="#721CFF"/>
</g>
<path d="M39.951 16.2397L31.3025 37.4879L22.6539 16.2397H15.3663L27.6587 46.3999H34.9024L47.1947 16.2397H39.951Z" fill="white"/>
</g>
<path d="M15 6H47V0H15V6ZM56 15V47H62V15H56ZM47 56H15V62H47V56ZM6 47V15H0V47H6ZM15 56C10.0294 56 6 51.9706 6 47H0C0 55.2843 6.71573 62 15 62V56ZM56 47C56 51.9706 51.9706 56 47 56V62C55.2843 62 62 55.2843 62 47H56ZM47 6C51.9706 6 56 10.0294 56 15H62C62 6.71573 55.2843 0 47 0V6ZM15 0C6.71573 0 0 6.71573 0 15H6C6 10.0294 10.0294 6 15 6V0Z" fill="url(#paint1_linear_152_1626)"/>
<path d="M96.3956 13.772L87.7276 35.068L79.0596 13.772H71.7556L84.0756 44H91.3356L103.656 13.772H96.3956ZM115.574 20.724C112.406 20.724 109.282 21.604 106.07 23.232L108.226 27.5C110.03 26.576 112.01 25.872 114.122 25.872C117.862 25.872 119.358 27.984 119.358 30.404V30.844C117.422 30.096 115.398 29.7 113.55 29.7C108.27 29.7 104.09 32.78 104.09 37.268C104.09 41.624 107.83 44.528 112.67 44.528C115.134 44.528 117.73 43.56 119.358 41.712V44H125.562V30.404C125.562 24.464 121.514 20.724 115.574 20.724ZM114.122 40.084C111.922 40.084 110.294 38.94 110.294 37.092C110.294 35.244 112.142 33.88 114.474 33.88C116.234 33.88 117.906 34.188 119.358 34.716V36.828C118.918 38.94 116.586 40.084 114.122 40.084ZM130.976 44H137.4V13.244H130.976V44ZM158.099 21.252V34.848L158.055 34.716C158.055 37.18 155.987 39.116 153.303 39.116C150.751 39.116 148.991 37.18 148.991 34.364V21.252H142.787V35.728C142.787 40.876 146.307 44.528 151.235 44.528C154.183 44.528 156.735 43.208 158.099 41.14V44H164.523V21.252H158.099ZM180.771 38.852C178.087 38.852 176.107 37.18 175.359 34.716H191.771C191.771 26.136 187.591 20.724 180.463 20.724C173.819 20.724 168.759 25.696 168.759 32.56C168.759 39.556 174.039 44.528 180.815 44.528C184.159 44.528 188.075 43.12 190.099 41.008L186.007 36.828C184.775 38.016 182.575 38.852 180.771 38.852ZM180.727 26.4C183.323 26.4 184.995 27.852 185.611 30.096H175.447C176.283 27.808 178.307 26.4 180.727 26.4ZM221.857 44L214.421 33.44C218.557 31.988 221.285 28.468 221.285 23.98C221.285 17.996 216.445 13.772 209.889 13.772H196.293V44H202.761V34.188H207.557L214.465 44H221.857ZM202.761 19.712H209.185C212.397 19.712 214.597 21.384 214.597 23.98C214.597 26.576 212.397 28.248 209.185 28.248H202.761V19.712ZM236.673 38.852C233.989 38.852 232.009 37.18 231.261 34.716H247.673C247.673 26.136 243.493 20.724 236.365 20.724C229.721 20.724 224.661 25.696 224.661 32.56C224.661 39.556 229.941 44.528 236.717 44.528C240.061 44.528 243.977 43.12 246.001 41.008L241.909 36.828C240.677 38.016 238.477 38.852 236.673 38.852ZM236.629 26.4C239.225 26.4 240.897 27.852 241.513 30.096H231.349C232.185 27.808 234.209 26.4 236.629 26.4ZM262.183 20.724C259.015 20.724 255.891 21.604 252.679 23.232L254.835 27.5C256.639 26.576 258.619 25.872 260.731 25.872C264.471 25.872 265.967 27.984 265.967 30.404V30.844C264.031 30.096 262.007 29.7 260.159 29.7C254.879 29.7 250.699 32.78 250.699 37.268C250.699 41.624 254.439 44.528 259.279 44.528C261.743 44.528 264.339 43.56 265.967 41.712V44H272.171V30.404C272.171 24.464 268.123 20.724 262.183 20.724ZM260.731 40.084C258.531 40.084 256.903 38.94 256.903 37.092C256.903 35.244 258.751 33.88 261.083 33.88C262.843 33.88 264.515 34.188 265.967 34.716V36.828C265.527 38.94 263.195 40.084 260.731 40.084ZM294.57 13.244V24.508C292.766 22.132 290.126 20.724 286.914 20.724C280.842 20.724 276.442 25.652 276.442 32.604C276.442 39.6 280.842 44.528 286.914 44.528C290.126 44.528 292.766 43.12 294.57 40.744V44H300.994V13.244H294.57ZM288.762 39.116C285.198 39.116 282.69 36.432 282.69 32.604C282.69 28.82 285.198 26.136 288.762 26.136C292.15 26.136 294.57 28.82 294.57 32.604C294.57 36.432 292.15 39.116 288.762 39.116Z" fill="white"/>
<defs>
<filter id="filter0_f_152_1626" x="-30.4134" y="-32.0934" width="163.893" height="163.893" filterUnits="userSpaceOnUse" color-interpolation-filters="sRGB">
<feFlood flood-opacity="0" result="BackgroundImageFix"/>
<feBlend mode="normal" in="SourceGraphic" in2="BackgroundImageFix" result="shape"/>
<feGaussianBlur stdDeviation="26.5067" result="effect1_foregroundBlur_152_1626"/>
</filter>
<filter id="filter1_f_152_1626" x="-67.228" y="-59.3882" width="124.465" height="124.465" filterUnits="userSpaceOnUse" color-interpolation-filters="sRGB">
<feFlood flood-opacity="0" result="BackgroundImageFix"/>
<feBlend mode="normal" in="SourceGraphic" in2="BackgroundImageFix" result="shape"/>
<feGaussianBlur stdDeviation="19.1541" result="effect1_foregroundBlur_152_1626"/>
</filter>
<linearGradient id="paint0_linear_152_1626" x1="23.4369" y1="84.6914" x2="94.7228" y2="52.1449" gradientUnits="userSpaceOnUse">
<stop stop-color="#721CFF"/>
<stop offset="1" stop-color="#B500D2"/>
</linearGradient>
<linearGradient id="paint1_linear_152_1626" x1="31" y1="3" x2="31" y2="59" gradientUnits="userSpaceOnUse">
<stop stop-color="white" stop-opacity="0.24"/>
<stop offset="1" stop-color="white" stop-opacity="0.08"/>
</linearGradient>
<clipPath id="clip0_152_1626">
<path d="M3 15C3 8.37258 8.37258 3 15 3H47C53.6274 3 59 8.37258 59 15V47C59 53.6274 53.6274 59 47 59H15C8.37258 59 3 53.6274 3 47V15Z" fill="white"/>
</clipPath>
</defs>
</svg>
